<?xml version="1.0" encoding="UTF-8" standalone="no"?>
<svg
   xmlns:dc="http://purl.org/dc/elements/1.1/"
   xmlns:cc="http://creativecommons.org/ns#"
   xmlns:rdf="http://www.w3.org/1999/02/22-rdf-syntax-ns#"
   xmlns:svg="http://www.w3.org/2000/svg"
   xmlns="http://www.w3.org/2000/svg"
   xmlns:sodipodi="http://sodipodi.sourceforge.net/DTD/sodipodi-0.dtd"
   xmlns:inkscape="http://www.inkscape.org/namespaces/inkscape"
   width="450"
   height="450"
   viewBox="0 0 119.0625 119.0625"
   version="1.1"
   id="svg8"
   inkscape:version="1.0.1 (3bc2e813f5, 2020-09-07)"
   sodipodi:docname="SectionSolo.svg"
   inkscape:export-filename="C:\Users\dmull\0 - Data\0 - Trabalho\1 - Portifolio\6 - Dodge the Circle\Assets\Assets\Rings\SectionSolo.png"
   inkscape:export-xdpi="96"
   inkscape:export-ydpi="96">
  <defs
     id="defs2" />
  <sodipodi:namedview
     id="base"
     pagecolor="#ffffff"
     bordercolor="#666666"
     borderopacity="1.0"
     inkscape:pageopacity="0.0"
     inkscape:pageshadow="2"
     inkscape:zoom="7.9195959"
     inkscape:cx="68.603405"
     inkscape:cy="9.9957994"
     inkscape:document-units="mm"
     inkscape:current-layer="layer1"
     showgrid="false"
     units="px"
     inkscape:snap-grids="true"
     inkscape:pagecheckerboard="true"
     inkscape:window-width="1920"
     inkscape:window-height="1017"
     inkscape:window-x="-8"
     inkscape:window-y="-8"
     inkscape:window-maximized="1"
     inkscape:document-rotation="0" />
  <metadata
     id="metadata5">
    <rdf:RDF>
      <cc:Work
         rdf:about="">
        <dc:format>image/svg+xml</dc:format>
        <dc:type
           rdf:resource="http://purl.org/dc/dcmitype/StillImage" />
        <dc:title></dc:title>
      </cc:Work>
    </rdf:RDF>
  </metadata>
  <g
     inkscape:label="Layer 1"
     inkscape:groupmode="layer"
     id="layer1"
     transform="translate(0,-177.93751)">
    <path
       id="path824"
       style="fill:#ffffff;stroke-width:0.35714287;paint-order:markers fill stroke"
       d="M 10.521484 0.26171875 A 13.169643 13.169643 0 0 0 9.7363281 0.53710938 A 13.169643 13.169643 0 0 0 8.5351562 1.0761719 A 13.169643 13.169643 0 0 0 7.3925781 1.7304688 A 13.169643 13.169643 0 0 0 6.3222656 2.4960938 A 13.169643 13.169643 0 0 0 5.3339844 3.3652344 A 13.169643 13.169643 0 0 0 4.4355469 4.328125 A 13.169643 13.169643 0 0 0 3.6386719 5.3769531 A 13.169643 13.169643 0 0 0 2.9511719 6.4980469 A 13.169643 13.169643 0 0 0 2.3789062 7.6835938 A 13.169643 13.169643 0 0 0 1.9277344 8.9199219 A 13.169643 13.169643 0 0 0 1.6015625 10.195312 A 13.169643 13.169643 0 0 0 1.4042969 11.498047 A 13.169643 13.169643 0 0 0 1.3398438 12.8125 A 13.169643 13.169643 0 0 0 1.3730469 13.744141 A 13.169643 13.169643 0 0 0 1.53125 15.050781 A 13.169643 13.169643 0 0 0 1.8183594 16.335938 A 13.169643 13.169643 0 0 0 2.234375 17.583984 A 13.169643 13.169643 0 0 0 2.7714844 18.787109 A 13.169643 13.169643 0 0 0 3.4277344 19.927734 A 13.169643 13.169643 0 0 0 4.1933594 20.998047 A 13.169643 13.169643 0 0 0 5.0625 21.988281 A 13.169643 13.169643 0 0 0 6.0253906 22.884766 A 13.169643 13.169643 0 0 0 7.0722656 23.681641 A 13.169643 13.169643 0 0 0 8.1953125 24.369141 A 13.169643 13.169643 0 0 0 9.3808594 24.943359 A 13.169643 13.169643 0 0 0 10.617188 25.394531 A 13.169643 13.169643 0 0 0 11.636719 25.654297 A 424.99993 424.99993 0 0 1 12.039062 25.675781 A 424.99994 424.99994 0 0 1 24.544922 26.300781 A 424.99993 424.99993 0 0 1 100.68164 37.626953 A 13.214286 13.214286 0 0 0 101.61914 37.5 A 13.214286 13.214286 0 0 0 102.9082 37.210938 A 13.214286 13.214286 0 0 0 104.16016 36.794922 A 13.214286 13.214286 0 0 0 105.36719 36.255859 A 13.214286 13.214286 0 0 0 106.51172 35.597656 A 13.214286 13.214286 0 0 0 107.58594 34.830078 A 13.214286 13.214286 0 0 0 108.58008 33.957031 A 13.214286 13.214286 0 0 0 109.48047 32.990234 A 13.214286 13.214286 0 0 0 110.2793 31.939453 A 13.214286 13.214286 0 0 0 110.96875 30.814453 A 13.214286 13.214286 0 0 0 111.54297 29.625 A 13.214286 13.214286 0 0 0 111.99609 28.382812 A 13.214286 13.214286 0 0 0 112.32422 27.103516 A 13.214286 13.214286 0 0 0 112.52148 25.796875 A 13.214286 13.214286 0 0 0 112.58789 24.478516 A 13.214286 13.214286 0 0 0 112.55469 23.542969 A 13.214286 13.214286 0 0 0 112.39453 22.232422 A 13.214286 13.214286 0 0 0 112.10547 20.943359 A 13.214286 13.214286 0 0 0 111.68945 19.689453 A 13.214286 13.214286 0 0 0 111.15039 18.484375 A 13.214286 13.214286 0 0 0 110.49219 17.337891 A 13.214286 13.214286 0 0 0 109.72461 16.263672 A 13.214286 13.214286 0 0 0 108.85156 15.271484 A 13.214286 13.214286 0 0 0 107.88477 14.371094 A 13.214286 13.214286 0 0 0 106.83398 13.572266 A 13.214286 13.214286 0 0 0 105.70898 12.880859 A 13.214286 13.214286 0 0 0 105.44922 12.755859 C 103.37164 12.247324 101.29448 11.744731 99.207031 11.269531 C 86.082996 8.2818147 72.786937 5.9044327 59.458984 4.0898438 C 43.249707 1.9284699 26.852143 0.67090134 10.521484 0.26171875 z "
       transform="matrix(0.26458333,0,0,0.26458333,0,177.93751)" />
  </g>
</svg>
